<svg xmlns="http://www.w3.org/2000/svg" xml:space="preserve" width="400" height="400"><g transform="translate(-2980 20)"><circle cx="3180" cy="180" r="180" style="opacity:1;fill:#b5e0ff;fill-opacity:1;stroke:#fff;stroke-width:40;stroke-linecap:round;stroke-linejoin:round;stroke-dasharray:none;stroke-opacity:1;paint-order:stroke markers fill"/><path fill="#83cbff" d="M3000 180c0-99.257 80.743-180 180-180s180 80.743 180 180-80.743 180-180 180-180-80.743-180-180m26.241-12.857h51.3a205.7 205.7 0 0 1 14.516-64.286h-45.656a153 153 0 0 0-20.16 64.286m77.066 0h63.836v-64.286h-46.98a180 180 0 0 0-16.843 64.286m63.823 25.714h-63.836a180 180 0 0 0 16.843 64.286h46.993zm0 90h-32.066a180 180 0 0 0 32.066 35.1zm51.493 46.543a154.3 154.3 0 0 0 76.307-46.543h-39.523a205.7 205.7 0 0 1-36.771 46.543m49.294-72.257h45.643v.026a153 153 0 0 0 20.173-64.312h-51.3a205.7 205.7 0 0 1-14.529 64.286m-11.25-64.286h-63.823v64.286h46.98a180 180 0 0 0 16.843-64.286m25.766-25.714h51.3a153 153 0 0 0-20.173-64.312v.026h-45.643a205.7 205.7 0 0 1 14.529 64.286m-42.622-64.286h-46.98v64.286h63.836a180 180 0 0 0-16.843-64.286m15.583-25.714h39.51a154.3 154.3 0 0 0-76.192-46.517 205.7 205.7 0 0 1 36.656 46.517m-62.55-35.1v35.1h32.066a180 180 0 0 0-32.066-35.1m-25.714 0a180 180 0 0 0-32.066 35.1h32.066zm25.714 240.814v35.1a180 180 0 0 0 32.066-35.1zm-146.456-25.714h45.695a205.7 205.7 0 0 1-14.555-64.286h-51.312c1.928 23.272 9.038 45.077 20.16 64.286m95.04 72.27a205.7 205.7 0 0 1-36.772-46.556h-39.6a154.3 154.3 0 0 0 76.384 46.556m-36.861-252.27a205.7 205.7 0 0 1 36.681-46.504 154.3 154.3 0 0 0-76.191 46.504z" style="opacity:.5;stroke-width:12.8571"/><g fill="none"><path fill="#7d4533" d="m3159.808 116.439 124.574 124.574a24.915 24.915 0 1 1-35.238 35.229L3124.57 151.668z"/><path fill="#b4acbc" d="m3145.731 61.22-58.749 58.74a4.15 4.15 0 0 0 0 5.872l13.678 24.831 24.5 13.346a4.15 4.15 0 0 0 5.872 0l41.109-41.109a4.15 4.15 0 0 0 0-5.872l-16.195-16.194c-3.961-3.987-.415-8.305-.415-8.305l22.623-22.623a4.152 4.152 0 0 0-2.5-7.059l-26.543-2.824a4.15 4.15 0 0 0-3.38 1.196m123.685 57.263 21.178-21.178c2.657-2.74 7.308-1.412 8.222 2.326 3.322 13.786-.332 28.9-11.129 39.697a42.02 42.02 0 0 1-42.48 10.331l-80.856 81.43a42.19 42.19 0 0 1-10.963 42.355 42.02 42.02 0 0 1-39.199 10.63 4.917 4.917 0 0 1-2.325-8.221l21.177-21.178a4.86 4.86 0 0 0 0-6.893l-13.37-13.37a4.86 4.86 0 0 0-6.894 0l-21.177 21.177c-2.658 2.74-7.309 1.412-8.222-2.326-3.322-13.786.332-28.9 11.128-39.697a42.02 42.02 0 0 1 42.904-10.19l80.574-81.14a42.19 42.19 0 0 1 10.821-42.786 42.02 42.02 0 0 1 39.2-10.63c3.737.913 4.982 5.564 2.325 8.221l-21.178 21.178a4.86 4.86 0 0 0 0 6.893l13.371 13.37a4.86 4.86 0 0 0 6.893 0"/><path fill="#cdc4d6" d="M3060.606 136.528a2.076 2.076 0 0 1 0-2.931l5.34-5.349a16.61 16.61 0 0 1 23.494 0l32.298 32.307a16.61 16.61 0 0 1 0 23.486l-5.348 5.34a2.076 2.076 0 0 1-2.932 0z"/></g></g></svg>